ffmpeg started on 2025-05-29 at 16:28:44
Report written to "D:\Convert\FFMetrics\reports\psnr_report-6.txt"
Log level: 32
Command line:
ffmpeg -hide_banner -nostdin -i "G:\\\xc0\xed\xe8\xec\xe5\\\xce\xed\xe3\xee\xe8\xed\xe3\xe8\\!_36_\xce\xf1\xe5\xed\xfc_2024\\JamClub\\\xd2\xfb - \xe3\xee\xf0\xed\xe8\xf7\xed\xe0\xff\\JamClub_Kimi_wa_Meido_sama_07_1080p_HEVC.mkv" -i "G:\\\xc0\xed\xe8\xec\xe5\\\xce\xed\xe3\xee\xe8\xed\xe3\xe8\\!_36_\xce\xf1\xe5\xed\xfc_2024\\JamClub\\\xd2\xfb - \xe3\xee\xf0\xed\xe8\xf7\xed\xe0\xff\\JamClub_Kimi_wa_Meido_sama_07_1080p.mp4" -lavfi "[0:v]settb=AVTB,setpts=PTS-STARTPTS,format=pix_fmts=yuv420p10,fps=24000/1001,scale=1920:1080:flags=bicubic[main];[1:v]settb=AVTB,setpts=PTS-STARTPTS,format=pix_fmts=yuv420p,fps=24000/1001,scale=1920:1080:flags=bicubic[ref];[main][ref]psnr=eof_action=endall:stats_file='D\\:/Convert/FFMetrics/logs/psnr_logfile-6.txt'" -f null -
Input #0, matroska,webm, from 'G:\Аниме\Онгоинги\!_36_Осень_2024\JamClub\Ты - горничная\JamClub_Kimi_wa_Meido_sama_07_1080p_HEVC.mkv':
  Metadata:
    COMPATIBLE_BRANDS: isomiso2avc1mp41
    MAJOR_BRAND     : isom
    MINOR_VERSION   : 512
    ENCODER         : Lavf61.7.100
  Duration: 00:23:22.26, start: -0.001000, bitrate: 1924 kb/s
  Stream #0:0: Video: hevc (Main 10), yuv420p10le(tv, bt709, progressive), 1920x1080 [SAR 1:1 DAR 16:9], 23.98 fps, 23.98 tbr, 1k tbn (default)
      Metadata:
        HANDLER_NAME    : VideoHandler
        VENDOR_ID       : [0][0][0][0]
        ENCODER         : Lavc61.19.100 libx265
        BPS             : 1727156
        DURATION        : 00:23:22.192708333
        NUMBER_OF_FRAMES: 33619
        NUMBER_OF_BYTES : 302725578
        _STATISTICS_WRITING_APP: mkvpropedit v66.0.0 ('Josie') 64-bit
        _STATISTICS_WRITING_DATE_UTC: 2025-05-29 10:37:54
        _STATISTICS_TAGS: BPS DURATION NUMBER_OF_FRAMES NUMBER_OF_BYTES
  Stream #0:1(eng): Audio: aac (LC), 48000 Hz, stereo, fltp (default)
      Metadata:
        HANDLER_NAME    : SoundHandler
        VENDOR_ID       : [0][0][0][0]
        ENCODER         : Lavc61.19.100 aac
        BPS             : 193456
        DURATION        : 00:23:22.221000000
        NUMBER_OF_FRAMES: 65730
        NUMBER_OF_BYTES : 33908663
        _STATISTICS_WRITING_APP: mkvpropedit v66.0.0 ('Josie') 64-bit
        _STATISTICS_WRITING_DATE_UTC: 2025-05-29 10:37:54
        _STATISTICS_TAGS: BPS DURATION NUMBER_OF_FRAMES NUMBER_OF_BYTES
Input #1, mov,mp4,m4a,3gp,3g2,mj2, from 'G:\Аниме\Онгоинги\!_36_Осень_2024\JamClub\Ты - горничная\JamClub_Kimi_wa_Meido_sama_07_1080p.mp4':
  Metadata:
    major_brand     : isom
    minor_version   : 512
    compatible_brands: isomiso2avc1mp41
    encoder         : Lavf60.16.100
  Duration: 00:23:22.24, start: 0.000000, bitrate: 4470 kb/s
  Stream #1:0[0x1](und): Video: h264 (High) (avc1 / 0x31637661), yuv420p(progressive), 1920x1080 [SAR 1:1 DAR 16:9], 4272 kb/s, 23.98 fps, 23.98 tbr, 90k tbn (default)
      Metadata:
        handler_name    : VideoHandler
        vendor_id       : [0][0][0][0]
  Stream #1:1[0x2](eng): Audio: aac (LC) (mp4a / 0x6134706D), 48000 Hz, stereo, fltp, 191 kb/s (default)
      Metadata:
        handler_name    : SoundHandler
        vendor_id       : [0][0][0][0]
Stream mapping:
  Stream #0:0 (hevc) -> settb:default
  Stream #1:0 (h264) -> settb:default
  psnr:default -> Stream #0:0 (wrapped_avframe)
  Stream #0:1 -> #0:1 (aac (native) -> pcm_s16le (native))
Output #0, null, to 'pipe:':
  Metadata:
    COMPATIBLE_BRANDS: isomiso2avc1mp41
    MAJOR_BRAND     : isom
    MINOR_VERSION   : 512
    encoder         : Lavf61.7.100
  Stream #0:0: Video: wrapped_avframe, yuv420p10le(tv, bt709, progressive), 1920x1080 [SAR 1:1 DAR 16:9], q=2-31, 200 kb/s, 23.98 fps, 23.98 tbn
      Metadata:
        encoder         : Lavc61.19.100 wrapped_avframe
  Stream #0:1(eng): Audio: pcm_s16le, 48000 Hz, stereo, s16, 1536 kb/s (default)
      Metadata:
        HANDLER_NAME    : SoundHandler
        VENDOR_ID       : [0][0][0][0]
        _STATISTICS_TAGS: BPS DURATION NUMBER_OF_FRAMES NUMBER_OF_BYTES
        BPS             : 193456
        DURATION        : 00:23:22.221000000
        NUMBER_OF_FRAMES: 65730
        NUMBER_OF_BYTES : 33908663
        _STATISTICS_WRITING_APP: mkvpropedit v66.0.0 ('Josie') 64-bit
        _STATISTICS_WRITING_DATE_UTC: 2025-05-29 10:37:54
        encoder         : Lavc61.19.100 pcm_s16le
frame=  105 fps=0.0 q=-0.0 size=N/A time=00:00:04.37 bitrate=N/A speed=8.63x    frame=  263 fps=255 q=-0.0 size=N/A time=00:00:10.96 bitrate=N/A speed=10.7x    frame=  446 fps=288 q=-0.0 size=N/A time=00:00:18.60 bitrate=N/A speed=  12x    frame=  701 fps=341 q=-0.0 size=N/A time=00:00:29.23 bitrate=N/A speed=14.2x    frame=  948 fps=367 q=-0.0 size=N/A time=00:00:39.53 bitrate=N/A speed=15.3x    frame= 1200 fps=386 q=-0.0 size=N/A time=00:00:50.05 bitrate=N/A speed=16.1x    frame= 1445 fps=398 q=-0.0 size=N/A time=00:01:00.26 bitrate=N/A speed=16.6x    frame= 1668 fps=403 q=-0.0 size=N/A time=00:01:09.56 bitrate=N/A speed=16.8x    frame= 1901 fps=408 q=-0.0 size=N/A time=00:01:19.28 bitrate=N/A speed=  17x    frame= 2148 fps=416 q=-0.0 size=N/A time=00:01:29.58 bitrate=N/A speed=17.3x    frame= 2405 fps=423 q=-0.0 size=N/A time=00:01:40.30 bitrate=N/A speed=17.6x    frame= 2627 fps=424 q=-0.0 size=N/A time=00:01:49.56 bitrate=N/A speed=17.7x    frame= 2852 fps=425 q=-0.0 size=N/A time=00:01:58.95 bitrate=N/A speed=17.7x    frame= 3097 fps=428 q=-0.0 size=N/A time=00:02:09.17 bitrate=N/A speed=17.8x    frame= 3357 fps=433 q=-0.0 size=N/A time=00:02:20.01 bitrate=N/A speed=18.1x    frame= 3629 fps=439 q=-0.0 size=N/A time=00:02:31.35 bitrate=N/A speed=18.3x    frame= 3912 fps=445 q=-0.0 size=N/A time=00:02:43.16 bitrate=N/A speed=18.6x    frame= 4170 fps=449 q=-0.0 size=N/A time=00:02:53.92 bitrate=N/A speed=18.7x    frame= 4416 fps=450 q=-0.0 size=N/A time=00:03:04.18 bitrate=N/A speed=18.8x    frame= 4664 fps=452 q=-0.0 size=N/A time=00:03:14.52 bitrate=N/A speed=18.8x    frame= 4909 fps=453 q=-0.0 size=N/A time=00:03:24.74 bitrate=N/A speed=18.9x    frame= 5120 fps=451 q=-0.0 size=N/A time=00:03:33.54 bitrate=N/A speed=18.8x    frame= 5320 fps=448 q=-0.0 size=N/A time=00:03:41.88 bitrate=N/A speed=18.7x    frame= 5507 fps=445 q=-0.0 size=N/A time=00:03:49.68 bitrate=N/A speed=18.5x    frame= 5638 fps=437 q=-0.0 size=N/A time=00:03:55.15 bitrate=N/A speed=18.2x    frame= 5736 fps=427 q=-0.0 size=N/A time=00:03:59.23 bitrate=N/A speed=17.8x    frame= 5854 fps=420 q=-0.0 size=N/A time=00:04:04.16 bitrate=N/A speed=17.5x    frame= 5987 fps=414 q=-0.0 size=N/A time=00:04:09.70 bitrate=N/A speed=17.3x    frame= 6097 fps=408 q=-0.0 size=N/A time=00:04:14.29 bitrate=N/A speed=  17x    frame= 6280 fps=406 q=-0.0 size=N/A time=00:04:21.92 bitrate=N/A speed=16.9x    frame= 6415 fps=401 q=-0.0 size=N/A time=00:04:27.55 bitrate=N/A speed=16.7x    frame= 6659 fps=403 q=-0.0 size=N/A time=00:04:37.73 bitrate=N/A speed=16.8x    frame= 6837 fps=402 q=-0.0 size=N/A time=00:04:45.15 bitrate=N/A speed=16.7x    frame= 7023 fps=400 q=-0.0 size=N/A time=00:04:52.91 bitrate=N/A speed=16.7x    frame= 7270 fps=403 q=-0.0 size=N/A time=00:05:03.21 bitrate=N/A speed=16.8x    frame= 7536 fps=406 q=-0.0 size=N/A time=00:05:14.31 bitrate=N/A speed=16.9x    frame= 7779 fps=408 q=-0.0 size=N/A time=00:05:24.44 bitrate=N/A speed=  17x    frame= 8037 fps=410 q=-0.0 size=N/A time=00:05:35.20 bitrate=N/A speed=17.1x    frame= 8298 fps=412 q=-0.0 size=N/A time=00:05:46.09 bitrate=N/A speed=17.2x    frame= 8559 fps=415 q=-0.0 size=N/A time=00:05:56.98 bitrate=N/A speed=17.3x    frame= 8812 fps=416 q=-0.0 size=N/A time=00:06:07.53 bitrate=N/A speed=17.4x    frame= 9058 fps=418 q=-0.0 size=N/A time=00:06:17.79 bitrate=N/A speed=17.4x    frame= 9302 fps=419 q=-0.0 size=N/A time=00:06:27.97 bitrate=N/A speed=17.5x    frame= 9533 fps=420 q=-0.0 size=N/A time=00:06:37.60 bitrate=N/A speed=17.5x    frame= 9778 fps=421 q=-0.0 size=N/A time=00:06:47.82 bitrate=N/A speed=17.6x    frame=10019 fps=422 q=-0.0 size=N/A time=00:06:57.87 bitrate=N/A speed=17.6x    frame=10253 fps=423 q=-0.0 size=N/A time=00:07:07.63 bitrate=N/A speed=17.6x    frame=10500 fps=424 q=-0.0 size=N/A time=00:07:17.93 bitrate=N/A speed=17.7x    frame=10729 fps=424 q=-0.0 size=N/A time=00:07:27.48 bitrate=N/A speed=17.7x    frame=10966 fps=425 q=-0.0 size=N/A time=00:07:37.37 bitrate=N/A speed=17.7x    frame=11236 fps=427 q=-0.0 size=N/A time=00:07:48.63 bitrate=N/A speed=17.8x    frame=11479 fps=428 q=-0.0 size=N/A time=00:07:58.76 bitrate=N/A speed=17.8x    frame=11681 fps=427 q=-0.0 size=N/A time=00:08:07.19 bitrate=N/A speed=17.8x    frame=11889 fps=426 q=-0.0 size=N/A time=00:08:15.87 bitrate=N/A speed=17.8x    frame=12140 fps=428 q=-0.0 size=N/A time=00:08:26.33 bitrate=N/A speed=17.8x    frame=12414 fps=429 q=-0.0 size=N/A time=00:08:37.76 bitrate=N/A speed=17.9x    frame=12637 fps=430 q=-0.0 size=N/A time=00:08:47.06 bitrate=N/A speed=17.9x    frame=12902 fps=431 q=-0.0 size=N/A time=00:08:58.12 bitrate=N/A speed=  18x    frame=13147 fps=432 q=-0.0 size=N/A time=00:09:08.33 bitrate=N/A speed=  18x    frame=13414 fps=433 q=-0.0 size=N/A time=00:09:19.47 bitrate=N/A speed=18.1x    frame=13679 fps=434 q=-0.0 size=N/A time=00:09:30.52 bitrate=N/A speed=18.1x    frame=13916 fps=435 q=-0.0 size=N/A time=00:09:40.41 bitrate=N/A speed=18.1x    frame=14158 fps=435 q=-0.0 size=N/A time=00:09:50.50 bitrate=N/A speed=18.1x    frame=14410 fps=436 q=-0.0 size=N/A time=00:10:01.01 bitrate=N/A speed=18.2x    frame=14653 fps=437 q=-0.0 size=N/A time=00:10:11.15 bitrate=N/A speed=18.2x    frame=14903 fps=437 q=-0.0 size=N/A time=00:10:21.57 bitrate=N/A speed=18.2x    frame=15154 fps=438 q=-0.0 size=N/A time=00:10:32.04 bitrate=N/A speed=18.3x    frame=15404 fps=439 q=-0.0 size=N/A time=00:10:42.47 bitrate=N/A speed=18.3x    frame=15669 fps=440 q=-0.0 size=N/A time=00:10:53.52 bitrate=N/A speed=18.3x    frame=15888 fps=440 q=-0.0 size=N/A time=00:11:02.66 bitrate=N/A speed=18.3x    frame=16108 fps=439 q=-0.0 size=N/A time=00:11:11.83 bitrate=N/A speed=18.3x    frame=16314 fps=439 q=-0.0 size=N/A time=00:11:20.42 bitrate=N/A speed=18.3x    frame=16579 fps=440 q=-0.0 size=N/A time=00:11:31.48 bitrate=N/A speed=18.3x    frame=16852 fps=441 q=-0.0 size=N/A time=00:11:42.86 bitrate=N/A speed=18.4x    frame=17119 fps=442 q=-0.0 size=N/A time=00:11:54.00 bitrate=N/A speed=18.4x    frame=17390 fps=443 q=-0.0 size=N/A time=00:12:05.30 bitrate=N/A speed=18.5x    frame=17644 fps=444 q=-0.0 size=N/A time=00:12:15.90 bitrate=N/A speed=18.5x    frame=17901 fps=445 q=-0.0 size=N/A time=00:12:26.62 bitrate=N/A speed=18.5x    frame=18146 fps=445 q=-0.0 size=N/A time=00:12:36.83 bitrate=N/A speed=18.6x    frame=18403 fps=446 q=-0.0 size=N/A time=00:12:47.55 bitrate=N/A speed=18.6x    frame=18646 fps=446 q=-0.0 size=N/A time=00:12:57.69 bitrate=N/A speed=18.6x    frame=18917 fps=447 q=-0.0 size=N/A time=00:13:08.99 bitrate=N/A speed=18.6x    frame=19197 fps=448 q=-0.0 size=N/A time=00:13:20.67 bitrate=N/A speed=18.7x    frame=19454 fps=449 q=-0.0 size=N/A time=00:13:31.39 bitrate=N/A speed=18.7x    frame=19710 fps=449 q=-0.0 size=N/A time=00:13:42.07 bitrate=N/A speed=18.7x    frame=19975 fps=450 q=-0.0 size=N/A time=00:13:53.12 bitrate=N/A speed=18.8x    frame=20252 fps=451 q=-0.0 size=N/A time=00:14:04.67 bitrate=N/A speed=18.8x    frame=20501 fps=451 q=-0.0 size=N/A time=00:14:15.06 bitrate=N/A speed=18.8x    frame=20768 fps=452 q=-0.0 size=N/A time=00:14:26.19 bitrate=N/A speed=18.9x    frame=21034 fps=453 q=-0.0 size=N/A time=00:14:37.29 bitrate=N/A speed=18.9x    frame=21277 fps=453 q=-0.0 size=N/A time=00:14:47.42 bitrate=N/A speed=18.9x    frame=21500 fps=453 q=-0.0 size=N/A time=00:14:56.72 bitrate=N/A speed=18.9x    frame=21734 fps=453 q=-0.0 size=N/A time=00:15:06.48 bitrate=N/A speed=18.9x    frame=21983 fps=453 q=-0.0 size=N/A time=00:15:16.87 bitrate=N/A speed=18.9x    frame=22238 fps=454 q=-0.0 size=N/A time=00:15:27.50 bitrate=N/A speed=18.9x    frame=22490 fps=454 q=-0.0 size=N/A time=00:15:38.02 bitrate=N/A speed=18.9x    frame=22749 fps=454 q=-0.0 size=N/A time=00:15:48.82 bitrate=N/A speed=  19x    frame=23006 fps=455 q=-0.0 size=N/A time=00:15:59.54 bitrate=N/A speed=  19x    frame=23260 fps=455 q=-0.0 size=N/A time=00:16:10.13 bitrate=N/A speed=  19x    frame=23521 fps=456 q=-0.0 size=N/A time=00:16:21.02 bitrate=N/A speed=  19x    frame=23771 fps=456 q=-0.0 size=N/A time=00:16:31.44 bitrate=N/A speed=  19x    frame=24023 fps=456 q=-0.0 size=N/A time=00:16:41.95 bitrate=N/A speed=  19x    frame=24244 fps=456 q=-0.0 size=N/A time=00:16:51.17 bitrate=N/A speed=  19x    frame=24514 fps=457 q=-0.0 size=N/A time=00:17:02.43 bitrate=N/A speed=19.1x    frame=24749 fps=457 q=-0.0 size=N/A time=00:17:12.23 bitrate=N/A speed=  19x    frame=24970 fps=457 q=-0.0 size=N/A time=00:17:21.45 bitrate=N/A speed=  19x    frame=25192 fps=456 q=-0.0 size=N/A time=00:17:30.71 bitrate=N/A speed=  19x    frame=25422 fps=456 q=-0.0 size=N/A time=00:17:40.30 bitrate=N/A speed=  19x    frame=25689 fps=457 q=-0.0 size=N/A time=00:17:51.44 bitrate=N/A speed=  19x    frame=25959 fps=457 q=-0.0 size=N/A time=00:18:02.70 bitrate=N/A speed=19.1x    frame=26233 fps=458 q=-0.0 size=N/A time=00:18:14.13 bitrate=N/A speed=19.1x    frame=26494 fps=458 q=-0.0 size=N/A time=00:18:25.02 bitrate=N/A speed=19.1x    frame=26773 fps=459 q=-0.0 size=N/A time=00:18:36.65 bitrate=N/A speed=19.1x    frame=27018 fps=459 q=-0.0 size=N/A time=00:18:46.87 bitrate=N/A speed=19.2x    frame=27245 fps=459 q=-0.0 size=N/A time=00:18:56.34 bitrate=N/A speed=19.1x    frame=27450 fps=459 q=-0.0 size=N/A time=00:19:04.89 bitrate=N/A speed=19.1x    frame=27673 fps=458 q=-0.0 size=N/A time=00:19:14.19 bitrate=N/A speed=19.1x    frame=27889 fps=458 q=-0.0 size=N/A time=00:19:23.20 bitrate=N/A speed=19.1x    frame=28149 fps=458 q=-0.0 size=N/A time=00:19:34.04 bitrate=N/A speed=19.1x    frame=28393 fps=459 q=-0.0 size=N/A time=00:19:44.22 bitrate=N/A speed=19.1x    frame=28649 fps=459 q=-0.0 size=N/A time=00:19:54.90 bitrate=N/A speed=19.1x    frame=28913 fps=459 q=-0.0 size=N/A time=00:20:05.91 bitrate=N/A speed=19.2x    frame=29176 fps=460 q=-0.0 size=N/A time=00:20:16.88 bitrate=N/A speed=19.2x    frame=29458 fps=460 q=-0.0 size=N/A time=00:20:28.64 bitrate=N/A speed=19.2x    frame=29714 fps=461 q=-0.0 size=N/A time=00:20:39.32 bitrate=N/A speed=19.2x    frame=29977 fps=461 q=-0.0 size=N/A time=00:20:50.29 bitrate=N/A speed=19.2x    frame=30268 fps=462 q=-0.0 size=N/A time=00:21:02.42 bitrate=N/A speed=19.3x    frame=30528 fps=462 q=-0.0 size=N/A time=00:21:13.27 bitrate=N/A speed=19.3x    frame=30788 fps=463 q=-0.0 size=N/A time=00:21:24.11 bitrate=N/A speed=19.3x    frame=31046 fps=463 q=-0.0 size=N/A time=00:21:34.87 bitrate=N/A speed=19.3x    frame=31304 fps=463 q=-0.0 size=N/A time=00:21:45.63 bitrate=N/A speed=19.3x    frame=31501 fps=463 q=-0.0 size=N/A time=00:21:53.85 bitrate=N/A speed=19.3x    frame=31618 fps=461 q=-0.0 size=N/A time=00:21:58.73 bitrate=N/A speed=19.2x    frame=31710 fps=459 q=-0.0 size=N/A time=00:22:02.57 bitrate=N/A speed=19.1x    frame=31842 fps=457 q=-0.0 size=N/A time=00:22:08.07 bitrate=N/A speed=19.1x    frame=31999 fps=456 q=-0.0 size=N/A time=00:22:14.62 bitrate=N/A speed=  19x    frame=32148 fps=455 q=-0.0 size=N/A time=00:22:20.83 bitrate=N/A speed=  19x    frame=32290 fps=454 q=-0.0 size=N/A time=00:22:26.76 bitrate=N/A speed=18.9x    frame=32415 fps=452 q=-0.0 size=N/A time=00:22:31.97 bitrate=N/A speed=18.9x    frame=32518 fps=450 q=-0.0 size=N/A time=00:22:36.27 bitrate=N/A speed=18.8x    frame=32635 fps=449 q=-0.0 size=N/A time=00:22:41.15 bitrate=N/A speed=18.7x    frame=32782 fps=447 q=-0.0 size=N/A time=00:22:47.28 bitrate=N/A speed=18.7x    frame=32927 fps=446 q=-0.0 size=N/A time=00:22:53.33 bitrate=N/A speed=18.6x    frame=33064 fps=445 q=-0.0 size=N/A time=00:22:59.04 bitrate=N/A speed=18.6x    frame=33197 fps=444 q=-0.0 size=N/A time=00:23:04.59 bitrate=N/A speed=18.5x    frame=33323 fps=442 q=-0.0 size=N/A time=00:23:09.84 bitrate=N/A speed=18.5x    frame=33420 fps=441 q=-0.0 size=N/A time=00:23:13.89 bitrate=N/A speed=18.4x    frame=33535 fps=439 q=-0.0 size=N/A time=00:23:18.68 bitrate=N/A speed=18.3x    [Parsed_psnr_10 @ 00000214f7f41580] PSNR y:47.335111 u:51.339947 v:51.590639 average:48.328687 min:34.731437 max:inf
[out#0/null @ 00000214f16f4540] video:14446KiB audio:262920KiB subtitle:0KiB other streams:0KiB global headers:0KiB muxing overhead: unknown
frame=33619 fps=438 q=-0.0 Lsize=N/A time=00:23:22.19 bitrate=N/A speed=18.3x    
